<svg viewBox="0 0 205 205" fill="none" xmlns="http://www.w3.org/2000/svg">
<path d="M97.5 2.88675C100.594 1.10042 104.406 1.10042 107.5 2.88675L186.268 48.3632C189.362 50.1496 191.268 53.4508 191.268 57.0235V147.977C191.268 151.549 189.362 154.85 186.268 156.637L107.5 202.113C104.406 203.9 100.594 203.9 97.5 202.113L18.7324 156.637C15.6384 154.85 13.7324 151.549 13.7324 147.976V57.0235C13.7324 53.4508 15.6384 50.1496 18.7324 48.3632L97.5 2.88675Z" fill="#8921FF"/>
<path d="M79.6281 144.855C69.251 141.679 66.2862 133.208 67.5568 131.725V79.8399L66.7097 59.2975H79.6281C77.9339 71.3688 78.9928 92.1229 78.9928 92.1229C78.9928 92.1229 120.501 80.2634 130.878 73.063L135.749 84.499C135.749 84.499 121.348 90.6405 79.6281 103.982C78.6398 110.265 78.3912 128.946 79.6281 131.09C82.8048 136.596 119.583 133.843 138.079 131.09V143.796C138.079 143.796 91.0564 148.354 79.6281 144.855Z" fill="white" stroke="white"/>
</svg>
