<svg viewBox="0 0 139 185" fill="none" xmlns="http://www.w3.org/2000/svg">
<rect width="139" height="185" />
<path fill-rule="evenodd" fill="#121111"  clip-rule="evenodd" d="M112.6 20.8421C113.138 21.2857 113.647 21.7191 114.125 22.14L111.952 23.208C113.919 27.211 121.864 41.6672 128.223 49.7529C129.385 51.2313 130.229 53.5685 130.694 56.6767C131.152 59.7415 131.206 63.3123 130.986 67.0309C130.546 74.468 129.03 82.1859 127.769 86.9941L127.533 87.8949L127.944 88.7307C128.867 90.6084 130.276 93.8541 131.448 97.384C132.637 100.965 133.5 104.597 133.5 107.338C133.5 108.894 133.001 111.293 131.971 114.286C130.96 117.226 129.5 120.557 127.734 123.913C124.167 130.685 119.512 137.244 115.048 140.878C113.217 142.368 109.489 143.544 104.173 144.217C98.9987 144.871 92.7894 144.997 86.4496 144.753C73.699 144.264 60.904 142.305 55.4313 140.449C54.6133 140.172 53.4251 139.521 51.8711 138.415C50.3491 137.331 48.6016 135.902 46.6805 134.19C42.8395 130.765 38.4197 126.31 33.8931 121.465C24.8451 111.783 15.4943 100.679 9.70901 93.4859L7.95883 94.8934C9.37981 88.2138 14.3621 75.541 23.6522 75.541C33.113 75.541 47.3043 88.6841 53.2174 95.2557L49.2754 75.541C51.9034 73.5696 57.1594 68.4438 57.1594 63.7123C57.1594 58.9807 51.9034 49.912 49.2754 45.9691C46.6473 42.0262 42.9681 32.9575 49.2754 28.2259C56.3434 22.9237 103.014 17.6215 112.6 20.8421ZM30.9802 125.669C30.7336 125.407 30.4868 125.143 30.2399 124.879C21.0851 115.082 11.6519 103.88 5.81273 96.6194L7.83417 94.9937L0 53.8549C0 40.7119 7.88406 12.0599 39.4203 2.59692C69.5338 -6.43919 99.6473 10.1704 112.6 20.8421C113.552 21.1619 114.138 21.5659 114.283 22.0622L116.439 21.0026C118.347 24.8836 126.112 38.9797 132.153 46.6622C134.09 49.1258 135.119 52.4553 135.639 55.9377C136.166 59.4635 136.209 63.4072 135.977 67.3263C135.54 74.7165 134.106 82.2949 132.835 87.3672C133.818 89.4629 135.1 92.5182 136.193 95.8082C137.426 99.52 138.5 103.772 138.5 107.338C138.5 109.724 137.788 112.746 136.699 115.912C135.591 119.132 134.023 122.699 132.158 126.242C128.459 133.267 123.426 140.505 118.204 144.756C115.191 147.207 110.2 148.494 104.8 149.177C104.522 149.212 104.241 149.246 103.957 149.279L111.093 181.459L111.78 184.558L108.606 184.5C88.7553 184.135 59.9286 182.933 38.0151 180.502C27.1174 179.293 17.7016 177.758 11.9625 175.793C10.5121 175.297 9.20892 174.744 8.14229 174.115C7.11766 173.511 6.0709 172.698 5.4459 171.572C4.72482 170.274 4.70758 168.81 5.39028 167.476C5.98613 166.311 7.03477 165.391 8.17356 164.639C15.5922 159.738 21.0306 152.075 24.7931 144.335C28.2533 137.217 30.2051 130.221 30.9802 125.669ZM35.1839 130.053C34.0811 134.733 32.169 140.598 29.2899 146.521C25.3074 154.713 19.367 163.237 10.9295 168.811C10.5616 169.054 10.3006 169.263 10.121 169.432C10.2514 169.535 10.4329 169.661 10.6821 169.808C11.3497 170.202 12.3073 170.626 13.5821 171.063C18.7441 172.83 27.6619 174.323 38.5664 175.533C59.1229 177.813 85.9312 179.009 105.523 179.437L98.9282 149.695C94.8905 149.917 90.5721 149.915 86.2578 149.749C73.3375 149.253 59.9774 147.27 53.8256 145.184C52.3187 144.673 50.6619 143.691 48.9716 142.488C47.2495 141.262 45.3536 139.705 43.3531 137.922C40.804 135.649 38.0383 132.966 35.1839 130.053Z"/>
</svg>
